<?xml version="1.0" encoding="utf-8"?>
<!-- Generator: Adobe Illustrator 26.0.0, SVG Export Plug-In . SVG Version: 6.00 Build 0)  -->
<svg version="1.1" id="Capa_1" xmlns="http://www.w3.org/2000/svg" xmlns:xlink="http://www.w3.org/1999/xlink" x="0px" y="0px"
	 viewBox="0 0 125.5 28.1" style="enable-background:new 0 0 125.5 28.1;" xml:space="preserve">
<style type="text/css">
	.st0{fill:#3F3F3F;}
	.st1{fill:#E9505B;}
</style>
<g>
	<path class="st0" d="M4.2,21.2V6.9h3.9v11.2h5.5v3.1H4.2z M29.2,14c0,1.1-0.1,2.1-0.4,3c-0.3,0.9-0.7,1.7-1.2,2.3
		c-0.6,0.7-1.3,1.2-2.2,1.5c-0.9,0.3-1.9,0.5-3.2,0.5c-1.2,0-2.2-0.2-3.1-0.5c-0.9-0.4-1.6-0.8-2.2-1.5c-0.6-0.7-1-1.4-1.3-2.3
		c-0.3-0.9-0.4-1.9-0.4-3c0-1.5,0.2-2.8,0.7-3.9c0.5-1.1,1.3-1.9,2.3-2.5c1-0.6,2.3-0.9,3.9-0.9c1.6,0,2.9,0.3,4,0.9
		c1,0.6,1.8,1.5,2.2,2.6C29,11.3,29.2,12.6,29.2,14z M19.4,14c0,0.9,0.1,1.6,0.3,2.2c0.2,0.6,0.5,1.1,0.9,1.4c0.4,0.3,1,0.5,1.7,0.5
		c0.7,0,1.3-0.2,1.7-0.5c0.4-0.3,0.7-0.8,0.9-1.4c0.2-0.6,0.3-1.4,0.3-2.2c0-1.3-0.2-2.3-0.6-3.1c-0.4-0.7-1.2-1.1-2.2-1.1
		c-0.7,0-1.3,0.2-1.7,0.5c-0.4,0.3-0.7,0.8-0.9,1.4C19.5,12.4,19.4,13.2,19.4,14z M37.6,12.8h6.2v7.7c-0.7,0.3-1.6,0.5-2.5,0.6
		c-1,0.2-1.9,0.2-3,0.2c-1.4,0-2.6-0.3-3.6-0.8c-1-0.5-1.8-1.3-2.4-2.4c-0.6-1.1-0.9-2.5-0.9-4.1c0-1.5,0.3-2.8,0.9-3.9
		c0.6-1.1,1.4-1.9,2.5-2.5c1.1-0.6,2.5-0.9,4.1-0.9c0.9,0,1.7,0.1,2.5,0.3c0.8,0.2,1.5,0.4,2.1,0.6l-1.2,3c-0.5-0.3-1-0.4-1.6-0.6
		c-0.6-0.1-1.1-0.2-1.8-0.2c-0.9,0-1.5,0.2-2.1,0.6c-0.5,0.4-0.9,0.9-1.1,1.5c-0.2,0.6-0.4,1.3-0.4,2.1c0,0.9,0.1,1.6,0.4,2.2
		c0.3,0.6,0.6,1.1,1.1,1.4c0.5,0.3,1.1,0.5,1.8,0.5c0.2,0,0.5,0,0.8,0c0.3,0,0.6-0.1,0.8-0.1v-2.2h-2.5V12.8z M60,14
		c0,1.1-0.1,2.1-0.4,3c-0.3,0.9-0.7,1.7-1.2,2.3c-0.6,0.7-1.3,1.2-2.2,1.5c-0.9,0.3-1.9,0.5-3.2,0.5c-1.2,0-2.2-0.2-3.1-0.5
		c-0.9-0.4-1.6-0.8-2.2-1.5c-0.6-0.7-1-1.4-1.3-2.3c-0.3-0.9-0.4-1.9-0.4-3c0-1.5,0.2-2.8,0.7-3.9c0.5-1.1,1.3-1.9,2.3-2.5
		c1-0.6,2.3-0.9,3.9-0.9c1.6,0,2.9,0.3,4,0.9c1,0.6,1.8,1.5,2.2,2.6C59.8,11.3,60,12.6,60,14z M50.2,14c0,0.9,0.1,1.6,0.3,2.2
		c0.2,0.6,0.5,1.1,0.9,1.4c0.4,0.3,1,0.5,1.7,0.5c0.7,0,1.3-0.2,1.7-0.5c0.4-0.3,0.7-0.8,0.9-1.4c0.2-0.6,0.3-1.4,0.3-2.2
		c0-1.3-0.2-2.3-0.6-3.1c-0.4-0.7-1.2-1.1-2.2-1.1c-0.7,0-1.3,0.2-1.7,0.5c-0.4,0.3-0.7,0.8-0.9,1.4C50.3,12.4,50.2,13.2,50.2,14z
		 M68.9,21.2H65V10.1h-3.5V6.9h10.8v3.2h-3.5V21.2z M74.4,21.2V6.9h3.9v14.3H74.4z M86.3,6.9c1.8,0,3.2,0.4,4.1,1.2
		c0.9,0.8,1.4,1.9,1.4,3.4c0,0.7-0.1,1.3-0.3,1.9c-0.2,0.6-0.5,1.1-0.9,1.6c-0.4,0.5-1,0.8-1.7,1.1c-0.7,0.3-1.5,0.4-2.6,0.4h-1.1
		v4.7h-3.9V6.9H86.3z M86.2,10h-1v3.3H86c0.3,0,0.6-0.1,0.9-0.2c0.3-0.1,0.5-0.3,0.7-0.6c0.2-0.3,0.3-0.6,0.3-1
		c0-0.4-0.1-0.8-0.4-1.1C87.2,10.2,86.8,10,86.2,10z M107.4,14c0,1.1-0.1,2.1-0.4,3c-0.3,0.9-0.7,1.7-1.2,2.3
		c-0.6,0.7-1.3,1.2-2.2,1.5c-0.9,0.3-1.9,0.5-3.2,0.5c-1.2,0-2.2-0.2-3.1-0.5c-0.9-0.4-1.6-0.8-2.2-1.5c-0.6-0.7-1-1.4-1.3-2.3
		c-0.3-0.9-0.4-1.9-0.4-3c0-1.5,0.2-2.8,0.7-3.9c0.5-1.1,1.3-1.9,2.3-2.5c1-0.6,2.3-0.9,3.9-0.9c1.6,0,2.9,0.3,4,0.9
		c1,0.6,1.8,1.5,2.2,2.6C107.1,11.3,107.4,12.6,107.4,14z M97.5,14c0,0.9,0.1,1.6,0.3,2.2c0.2,0.6,0.5,1.1,0.9,1.4
		c0.4,0.3,1,0.5,1.7,0.5c0.7,0,1.3-0.2,1.7-0.5c0.4-0.3,0.7-0.8,0.9-1.4c0.2-0.6,0.3-1.4,0.3-2.2c0-1.3-0.2-2.3-0.6-3.1
		c-0.4-0.7-1.2-1.1-2.2-1.1c-0.7,0-1.3,0.2-1.7,0.5c-0.4,0.3-0.7,0.8-0.9,1.4C97.6,12.4,97.5,13.2,97.5,14z"/>
	<path class="st1" d="M118.6,13.3l-0.3,1.6h2.4v2.5h-2.8l-0.7,3.8h-2.6l0.7-3.8h-1.6l-0.7,3.8h-2.6l0.7-3.8h-2.2v-2.5h2.7l0.3-1.6
		h-2.3v-2.5h2.8l0.7-3.8h2.6l-0.7,3.8h1.6l0.7-3.8h2.6l-0.7,3.8h2.2v2.5H118.6z M114,14.9h1.6l0.3-1.6h-1.6L114,14.9z"/>
</g>
</svg>
