<?xml version="1.0" encoding="utf-8"?>
<!-- Generator: Adobe Illustrator 26.0.0, SVG Export Plug-In . SVG Version: 6.00 Build 0)  -->
<svg version="1.1" id="Capa_1" xmlns="http://www.w3.org/2000/svg" xmlns:xlink="http://www.w3.org/1999/xlink" x="0px" y="0px"
	 viewBox="0 0 305.8 58" style="enable-background:new 0 0 305.8 58;" xml:space="preserve">
<style type="text/css">
	.st0{fill:#FFEE00;stroke:#6E6E6D;stroke-linecap:round;stroke-linejoin:round;stroke-miterlimit:10;}
	.st1{fill:#FFEE00;stroke:#6E6E6D;stroke-linejoin:round;stroke-miterlimit:10;}
</style>
<path class="st0" d="M27.7,6.2L34,18.9c0.2,0.5,0.7,0.8,1.2,0.9l14.1,2c1.3,0.2,1.9,1.8,0.9,2.8L40,34.5c-0.4,0.4-0.6,0.9-0.5,1.4
	l2.4,14c0.2,1.3-1.2,2.3-2.4,1.7L27,45c-0.5-0.2-1-0.2-1.5,0L13,51.6c-1.2,0.6-2.6-0.4-2.4-1.7l2.4-14c0.1-0.5-0.1-1.1-0.5-1.4
	L2.4,24.6c-1-0.9-0.4-2.6,0.9-2.8l14.1-2c0.5-0.1,1-0.4,1.2-0.9l6.3-12.7C25.4,4.9,27.1,4.9,27.7,6.2z"/>
<path class="st1" d="M90,6.2l6.3,12.7c0.2,0.5,0.7,0.8,1.2,0.9l14.1,2c1.3,0.2,1.9,1.8,0.9,2.8l-10.2,9.9c-0.4,0.4-0.6,0.9-0.5,1.4
	l2.4,14c0.2,1.3-1.2,2.3-2.4,1.7L89.3,45c-0.5-0.2-1-0.2-1.5,0l-12.6,6.6c-1.2,0.6-2.6-0.4-2.4-1.7l2.4-14c0.1-0.5-0.1-1.1-0.5-1.4
	l-10.2-9.9c-1-0.9-0.4-2.6,0.9-2.8l14.1-2c0.5-0.1,1-0.4,1.2-0.9l6.3-12.7C87.7,4.9,89.4,4.9,90,6.2z"/>
<path class="st1" d="M152.2,6.2l6.3,12.7c0.2,0.5,0.7,0.8,1.2,0.9l14.1,2c1.3,0.2,1.9,1.8,0.9,2.8l-10.2,9.9
	c-0.4,0.4-0.6,0.9-0.5,1.4l2.4,14c0.2,1.3-1.2,2.3-2.4,1.7L151.5,45c-0.5-0.2-1-0.2-1.5,0l-12.6,6.6c-1.2,0.6-2.6-0.4-2.4-1.7
	l2.4-14c0.1-0.5-0.1-1.1-0.5-1.4l-10.2-9.9c-1-0.9-0.4-2.6,0.9-2.8l14.1-2c0.5-0.1,1-0.4,1.2-0.9l6.3-12.7
	C149.9,4.9,151.6,4.9,152.2,6.2z"/>
<path class="st1" d="M214.5,6.2l6.3,12.7c0.2,0.5,0.7,0.8,1.2,0.9l14.1,2c1.3,0.2,1.9,1.8,0.9,2.8l-10.2,9.9
	c-0.4,0.4-0.6,0.9-0.5,1.4l2.4,14c0.2,1.3-1.2,2.3-2.4,1.7L213.8,45c-0.5-0.2-1-0.2-1.5,0l-12.6,6.6c-1.2,0.6-2.6-0.4-2.4-1.7
	l2.4-14c0.1-0.5-0.1-1.1-0.5-1.4l-10.2-9.9c-1-0.9-0.4-2.6,0.9-2.8l14.1-2c0.5-0.1,1-0.4,1.2-0.9l6.3-12.7
	C212.1,4.9,213.9,4.9,214.5,6.2z"/>
<path class="st1" d="M276.7,6.2l6.3,12.7c0.2,0.5,0.7,0.8,1.2,0.9l14.1,2c1.3,0.2,1.9,1.8,0.9,2.8L289,34.5
	c-0.4,0.4-0.6,0.9-0.5,1.4l2.4,14c0.2,1.3-1.2,2.3-2.4,1.7L276,45c-0.5-0.2-1-0.2-1.5,0l-12.6,6.6c-1.2,0.6-2.6-0.4-2.4-1.7l2.4-14
	c0.1-0.5-0.1-1.1-0.5-1.4l-10.2-9.9c-1-0.9-0.4-2.6,0.9-2.8l14.1-2c0.5-0.1,1-0.4,1.2-0.9l6.3-12.7C274.4,4.9,276.1,4.9,276.7,6.2z"
	/>
</svg>
