<?xml version="1.0" encoding="utf-8"?>
<!-- Generator: Adobe Illustrator 26.0.0, SVG Export Plug-In . SVG Version: 6.00 Build 0)  -->
<svg version="1.1" id="Capa_1" xmlns="http://www.w3.org/2000/svg" xmlns:xlink="http://www.w3.org/1999/xlink" x="0px" y="0px"
	 viewBox="0 0 305.8 58" style="enable-background:new 0 0 305.8 58;" xml:space="preserve">
<style type="text/css">
	.st0{fill:#FFEE00;}
</style>
<polygon class="st0" points="26.3,3.2 34.4,19.7 52.6,22.3 39.4,35.1 42.5,53.2 26.3,44.6 10,53.2 13.1,35.1 0,22.3 18.2,19.7 "/>
<polygon class="st0" points="88.5,3.2 96.6,19.7 114.8,22.3 101.7,35.1 104.8,53.2 88.5,44.6 72.3,53.2 75.4,35.1 62.2,22.3 
	80.4,19.7 "/>
<polygon class="st0" points="150.8,3.2 158.9,19.7 177,22.3 163.9,35.1 167,53.2 150.8,44.6 134.5,53.2 137.6,35.1 124.5,22.3 
	142.6,19.7 "/>
<polygon class="st0" points="213,3.2 221.1,19.7 239.3,22.3 226.1,35.1 229.3,53.2 213,44.6 196.8,53.2 199.9,35.1 186.7,22.3 
	204.9,19.7 "/>
<polygon class="st0" points="275.3,3.2 283.4,19.7 301.5,22.3 288.4,35.1 291.5,53.2 275.3,44.6 259,53.2 262.1,35.1 249,22.3 
	267.1,19.7 "/>
</svg>
