<?xml version="1.0" standalone="no"?>
<svg xmlns:xlink="http://www.w3.org/1999/xlink" id="wave" style="transform:rotate(0deg); transition: 0.3s" viewBox="0 0 1440 490" version="1.1" xmlns="http://www.w3.org/2000/svg"><defs><linearGradient id="sw-gradient-0" x1="0" x2="0" y1="1" y2="0"><stop stop-color="rgba(239, 240, 243, 1)" offset="0%"/><stop stop-color="rgba(239, 240, 243, 1)" offset="100%"/></linearGradient></defs><path style="transform:translate(0, 0px); opacity:1" fill="url(#sw-gradient-0)" d="M0,343L120,285.8C240,229,480,114,720,73.5C960,33,1200,65,1440,73.5C1680,82,1920,65,2160,81.7C2400,98,2640,147,2880,138.8C3120,131,3360,65,3600,40.8C3840,16,4080,33,4320,89.8C4560,147,4800,245,5040,285.8C5280,327,5520,310,5760,261.3C6000,212,6240,131,6480,114.3C6720,98,6960,147,7200,196C7440,245,7680,294,7920,318.5C8160,343,8400,343,8640,310.3C8880,278,9120,212,9360,228.7C9600,245,9840,343,10080,383.8C10320,425,10560,408,10800,400.2C11040,392,11280,392,11520,400.2C11760,408,12000,425,12240,408.3C12480,392,12720,343,12960,277.7C13200,212,13440,131,13680,122.5C13920,114,14160,180,14400,179.7C14640,180,14880,114,15120,81.7C15360,49,15600,49,15840,65.3C16080,82,16320,114,16560,171.5C16800,229,17040,310,17160,351.2L17280,392L17280,490L17160,490C17040,490,16800,490,16560,490C16320,490,16080,490,15840,490C15600,490,15360,490,15120,490C14880,490,14640,490,14400,490C14160,490,13920,490,13680,490C13440,490,13200,490,12960,490C12720,490,12480,490,12240,490C12000,490,11760,490,11520,490C11280,490,11040,490,10800,490C10560,490,10320,490,10080,490C9840,490,9600,490,9360,490C9120,490,8880,490,8640,490C8400,490,8160,490,7920,490C7680,490,7440,490,7200,490C6960,490,6720,490,6480,490C6240,490,6000,490,5760,490C5520,490,5280,490,5040,490C4800,490,4560,490,4320,490C4080,490,3840,490,3600,490C3360,490,3120,490,2880,490C2640,490,2400,490,2160,490C1920,490,1680,490,1440,490C1200,490,960,490,720,490C480,490,240,490,120,490L0,490Z"/></svg>