<?xml version="1.0" encoding="utf-8"?>
<!-- Generator: Adobe Illustrator 26.0.0, SVG Export Plug-In . SVG Version: 6.00 Build 0)  -->
<svg version="1.1" id="Capa_1" xmlns="http://www.w3.org/2000/svg" xmlns:xlink="http://www.w3.org/1999/xlink" x="0px" y="0px"
	 viewBox="0 0 395.7 427.3" style="enable-background:new 0 0 395.7 427.3;" xml:space="preserve">
<style type="text/css">
	.st0{clip-path:url(#SVGID_00000012437434912552044930000017603728874153072563_);}
	.st1{fill:#EFF0F3;}
	.st2{fill:#263238;}
	.st3{fill:#FFBE9D;}
	.st4{fill:#EB996E;}
	.st5{fill:#E8505B;}
	.st6{fill:#455A64;}
	.st7{fill:#FF8E3C;}
	.st8{opacity:0.2;}
	.st9{fill:#FFFFFF;}
	.st10{fill:#FAFAFA;}
	.st11{clip-path:url(#SVGID_00000023970237020215986280000013075880208780777126_);}
	.st12{fill:#E0E0E0;}
</style>
<g>
	<defs>
		<rect id="SVGID_1_" x="-6.3" y="198.3" width="153" height="144"/>
	</defs>
	<clipPath id="SVGID_00000180365780180353368780000012608440101940994494_">
		<use xlink:href="#SVGID_1_"  style="overflow:visible;"/>
	</clipPath>
	<g style="clip-path:url(#SVGID_00000180365780180353368780000012608440101940994494_);">
		<path class="st1" d="M129.7,333.4l-25.2-4.3c-10.1,8.7-23,13.3-36.2,13c-13.3-0.3-25.9-5.6-35.5-14.7s-15.5-21.5-16.6-34.8
			c-1-13.3,2.8-26.4,10.9-37c8.1-10.6,19.7-17.7,32.8-20.2s26.5,0.1,37.8,7.1c11.3,7,19.6,17.9,23.4,30.6
			c3.7,12.8,2.7,26.5-3.1,38.5L129.7,333.4z"/>
		<path class="st2" d="M126,231.5c0,0.3-0.1,0.6-0.2,0.8c-0.2,0.2-0.4,0.4-0.6,0.5c-0.3,0.1-0.5,0.1-0.8,0.1
			c-0.3-0.1-0.5-0.2-0.7-0.4c-0.2-0.2-0.3-0.5-0.4-0.7c-0.1-0.3,0-0.6,0.1-0.8c0.1-0.3,0.3-0.5,0.5-0.6c0.2-0.2,0.5-0.2,0.8-0.2
			c0.4,0,0.7,0.2,1,0.4C125.8,230.8,126,231.1,126,231.5z"/>
		<path class="st2" d="M131.6,231.5c0,0.3-0.1,0.6-0.2,0.8c-0.2,0.2-0.4,0.4-0.6,0.5c-0.3,0.1-0.5,0.1-0.8,0.1
			c-0.3-0.1-0.5-0.2-0.7-0.4c-0.2-0.2-0.3-0.5-0.4-0.7c-0.1-0.3,0-0.6,0.1-0.8c0.1-0.3,0.3-0.5,0.5-0.6c0.2-0.2,0.5-0.2,0.8-0.2
			c0.4,0,0.7,0.2,1,0.4C131.4,230.8,131.6,231.1,131.6,231.5z"/>
		<path class="st2" d="M137.1,230.8c0.1,0.2,0.2,0.5,0.2,0.8c0,0.3-0.1,0.6-0.3,0.8c-0.2,0.2-0.4,0.4-0.7,0.5
			c-0.3,0.1-0.6,0.1-0.8,0c-0.3-0.1-0.5-0.2-0.7-0.4c-0.2-0.2-0.3-0.5-0.3-0.8c0-0.3,0-0.6,0.1-0.8c0.1-0.3,0.3-0.5,0.6-0.6
			c0.3-0.2,0.7-0.2,1.1-0.1C136.6,230.2,136.9,230.5,137.1,230.8z"/>
		<path class="st2" d="M130.2,215.1c0.1,0,0.2,0,0.3,0l0.8,0.1c0.2,0,0.4,0,0.6,0.1l0.7,0.1l0.8,0.1l0.9,0.3
			c1.6,0.4,3.2,1.1,4.6,2.1c2.1,1.3,3.8,3.1,5.1,5.2s2,4.5,2.3,6.9c0.1,0.7,0.1,1.5,0,2.2c0,0.4,0,0.7-0.1,1.1
			c-0.1,0.4-0.1,0.8-0.2,1.1c-0.3,1.6-0.8,3.1-1.5,4.5c-1.6,3.1-4.1,5.5-7.1,7c-1.6,0.8-3.3,1.4-5.1,1.6c-0.5,0.1-0.9,0.1-1.4,0.1
			c-0.5,0-0.9,0-1.4,0c-0.9,0-1.9-0.2-2.8-0.4c-2-0.4-3.8-1.2-5.5-2.3l-0.1-0.1h-0.1l-5.7,2.3l0.2,0.2c0.6-2.1,1.1-4.2,1.7-6.1v-0.1
			l-0.1-0.1c-1.5-2-2.5-4.3-3-6.8c-0.2-1.2-0.3-2.3-0.2-3.5c0-0.6,0.1-1.1,0.2-1.7c0-0.3,0.1-0.6,0.1-0.8c0-0.3,0.1-0.5,0.2-0.8
			c0.8-3.1,2.4-5.8,4.7-8c2.3-2.2,5.2-3.6,8.3-4.1c0.4-0.1,0.8-0.1,1.1-0.2l0.8-0.1l0.5,0L130.2,215.1l-0.2,0h-0.5h-0.8
			c-0.3,0-0.7,0.1-1.1,0.2c-0.2,0-0.4,0.1-0.7,0.1l-0.7,0.2l-0.8,0.2l-0.9,0.3c-1.4,0.5-2.6,1.2-3.8,2c-3.2,2.2-5.5,5.6-6.4,9.3
			c-0.1,0.3-0.2,0.5-0.2,0.8l-0.1,0.8c-0.1,0.6-0.2,1.2-0.2,1.7c-0.1,1.2,0,2.4,0.2,3.6c0.5,2.5,1.5,5,3.1,7v-0.2l-1.7,6.1l-0.1,0.4
			l0.3-0.1l5.7-2.3h-0.2c2.5,1.7,5.5,2.6,8.5,2.7c0.5,0,1,0,1.4,0c0.5,0,1,0,1.4-0.1c1.8-0.2,3.6-0.8,5.2-1.6c1.6-0.8,3-1.8,4.3-3.1
			c1.2-1.2,2.2-2.6,3-4.1c0.7-1.4,1.3-3,1.6-4.6l0.2-1.2c0.1-0.4,0.1-0.8,0.1-1.1c0-0.7,0-1.5,0-2.2c-0.3-2.7-1.2-5.4-2.7-7.6
			c-1.3-1.9-2.9-3.5-4.8-4.7c-1.4-0.9-3-1.6-4.6-2l-1-0.2l-0.9-0.1l-0.7-0.1c-0.2,0-0.4,0-0.6,0h-0.8L130.2,215.1z"/>
		<path class="st2" d="M70,205.2c-0.7-1.5-1.7-2.7-3-3.6c-1.3-0.9-2.9-1.4-4.5-1.5c-1.6-0.1-3.2,0.3-4.6,1.2c-1.4,0.8-2.5,2-3.3,3.4
			c-0.9,1.7-1.2,3.7-2.5,5.1c-0.8,0.9-1.9,1.4-3.1,1.5c-1.2,0.1-2.4-0.2-3.3-0.9c-0.2,1-0.1,2.1,0.4,3c0.5,0.9,1.3,1.6,2.3,2
			l-3.2,0.3c1.7,3.7,6.4,5.4,10.4,4.7c4-0.7,7.5-3.4,10.2-6.4"/>
		<path class="st2" d="M70,205.2l-9.7,3.2c-3.5,2.3-6.1,5.6-7.5,9.5c-0.5,1.3-0.8,2.7-1.3,4c-0.5,1.3-1.5,2.4-2.7,3
			c-0.9,0.4-2,0.5-3,0.8c-0.8,0.3-1.5,0.8-2.1,1.5c-0.6,0.7-1,1.4-1.2,2.3c-0.2,0.9-0.2,1.7-0.1,2.6c0.2,0.9,0.5,1.7,0.9,2.4
			c0.5,0.7,1.1,1.4,1.1,2.3c0,0.6-0.2,1.2-0.4,1.7c-0.2,1-0.2,2,0.2,3c0.4,0.9,1.1,1.7,1.9,2.2s1.9,0.7,2.9,0.6
			c1-0.1,1.9-0.5,2.7-1.2c0.6,1.4,1.4,2.9,2.9,3.6c1.4,0.7,3.5,0.1,3.8-1.5c0.4,0.7,0.9,1.4,1.7,1.7c0.7,0.4,1.6,0.5,2.4,0.3
			c0.8-0.2,1.5-0.6,2.1-1.2c0.5-0.6,0.9-1.4,0.9-2.2l26.7-29.2C88.2,204,72.7,205,70,205.2z"/>
		<path class="st3" d="M65.5,215.4c-0.8,0.1-1.6,0.5-2.1,1.1c-0.6,0.6-0.8,1.4-0.8,2.3l1.9,45c0.1,5.3,9.7,11.6,15.4,11.5
			c5.7-0.1,4-6.2,4.1-11.3c0.1-8.4,0.1-11.6,0.1-11.6s7.2-1.2,8.7-10.7c0.7-4.7,0.5-12.4,0.1-18.7c-0.4-5.7-4.1-12.6-9.8-12.1
			L65.5,215.4z"/>
		<path class="st2" d="M90.4,229.1c0,0.3-0.1,0.6-0.3,0.9c-0.2,0.2-0.5,0.4-0.8,0.4c-0.2,0-0.3,0-0.5-0.1c-0.1,0-0.3-0.1-0.4-0.2
			c-0.1-0.1-0.2-0.2-0.3-0.4c-0.1-0.1-0.1-0.3-0.1-0.4c0-0.3,0.1-0.6,0.3-0.9s0.5-0.4,0.8-0.4c0.2,0,0.3,0,0.5,0.1
			c0.1,0,0.3,0.1,0.4,0.2c0.1,0.1,0.2,0.2,0.3,0.4C90.4,228.8,90.4,228.9,90.4,229.1z"/>
		<path class="st2" d="M91.2,227c-0.1,0.2-1.1-0.5-2.4-0.5c-1.3,0-2.3,0.7-2.4,0.5c-0.1-0.2,0.1-0.4,0.5-0.7
			c0.6-0.4,1.2-0.6,1.9-0.6c0.7,0,1.3,0.2,1.9,0.6C91.1,226.6,91.3,226.9,91.2,227z"/>
		<path class="st2" d="M77.7,229.1c0,0.3-0.1,0.6-0.3,0.9c-0.2,0.2-0.5,0.4-0.8,0.4c-0.2,0-0.3,0-0.5-0.1c-0.1,0-0.3-0.1-0.4-0.2
			c-0.1-0.1-0.2-0.2-0.3-0.4c-0.1-0.1-0.1-0.3-0.1-0.4c0-0.3,0.1-0.6,0.3-0.9c0.2-0.2,0.5-0.4,0.8-0.4c0.2,0,0.3,0,0.5,0.1
			c0.1,0,0.3,0.1,0.4,0.2c0.1,0.1,0.2,0.2,0.3,0.4C77.6,228.8,77.6,228.9,77.7,229.1z"/>
		<path class="st2" d="M78.4,227.2c-0.1,0.2-1.1-0.5-2.4-0.5c-1.3,0-2.3,0.7-2.4,0.5c-0.1-0.2,0.1-0.4,0.5-0.7
			c0.6-0.4,1.2-0.6,1.9-0.6c0.7,0,1.3,0.2,1.9,0.6C78.3,226.9,78.4,227.1,78.4,227.2z"/>
		<path class="st2" d="M83.1,236.9c0.7-0.2,1.4-0.3,2.1-0.4c0.3,0,0.6-0.1,0.7-0.3c0-0.3,0-0.7-0.2-1l-1-2.5
			c-1.4-3.6-2.4-6.6-2.2-6.6c0.1-0.1,1.4,2.9,2.7,6.4c0.3,0.9,0.6,1.7,0.9,2.6c0.2,0.4,0.3,0.9,0.2,1.3c0,0.1-0.1,0.2-0.2,0.3
			s-0.2,0.1-0.3,0.2c-0.2,0-0.4,0.1-0.6,0.1C84.6,237,83.8,237,83.1,236.9z"/>
		<path class="st4" d="M84,252.3c-4.5,0.1-8.8-1.1-12.7-3.4c0,0,3.1,6.5,12.5,5.6L84,252.3z"/>
		<path class="st4" d="M82.5,240c-0.3-0.3-0.6-0.6-1-0.7c-0.4-0.2-0.8-0.2-1.2-0.2c-0.3,0-0.6,0.1-0.8,0.2c-0.3,0.1-0.5,0.3-0.7,0.6
			c-0.2,0.2-0.3,0.5-0.3,0.8c0,0.3,0.1,0.6,0.2,0.8c0.2,0.2,0.5,0.4,0.8,0.5c0.3,0.1,0.6,0.1,0.9,0c0.6-0.2,1.2-0.6,1.7-1
			c0.1-0.1,0.3-0.2,0.4-0.4c0-0.1,0.1-0.2,0.1-0.2S82.6,240.2,82.5,240"/>
		<path class="st2" d="M79.3,237.8c0.2,0,0.2,1.4,1.4,2.4c1.2,1,2.7,0.9,2.7,1c0,0.2-0.3,0.3-1,0.3c-0.8,0-1.6-0.3-2.3-0.8
			c-0.6-0.5-1-1.2-1.1-2C79,238.1,79.2,237.8,79.3,237.8z"/>
		<path class="st2" d="M78.9,224.9c-0.1,0.4-1.4,0.2-3,0.4c-1.5,0.2-2.8,0.6-3,0.3c-0.1-0.2,0.1-0.5,0.6-0.8
			c0.7-0.4,1.4-0.7,2.2-0.8c0.8-0.1,1.6,0,2.3,0.3C78.7,224.5,79,224.8,78.9,224.9z"/>
		<path class="st2" d="M90.7,223.2c-0.2,0.3-1.1,0-2.2,0c-1.1,0-2,0.2-2.2-0.1c-0.1-0.2,0.1-0.4,0.5-0.7c0.5-0.3,1.2-0.5,1.8-0.5
			c0.6,0,1.2,0.2,1.8,0.6C90.7,222.7,90.8,223,90.7,223.2z"/>
		<path class="st3" d="M63.5,230.5c-0.4-0.2-0.8-0.3-1.3-0.3c-0.4,0-0.9,0.2-1.2,0.4c-0.9,0.5-1.5,1.3-1.9,2.3c-0.4,0.9-0.4,2,0,3
			c0.3,1,1,1.8,1.8,2.3c0.9,0.5,1.9,0.8,2.9,0.6"/>
		<path class="st2" d="M78.4,207.8c3.4,0.1,6.1,1.2,9.1,2.8c3.1,1.6,5.4,4.4,6.5,7.7c0.1,0.3,0.2,0.7,0.2,1.1c0,0.4-0.1,0.7-0.3,1.1
			c-0.3,0.4-0.7,0.6-1.2,0.7c-0.5,0.1-1,0-1.4-0.2c-0.9-0.5-1.6-1.1-2.1-1.9c-0.2,0.9-0.7,1.6-1.5,2.2c-0.7,0.5-1.6,0.8-2.5,0.8
			c-0.9,0-1.8-0.3-2.5-0.9c-0.7-0.6-1.2-1.3-1.4-2.2c0,1.8-1.8,3.3-3.6,3.3c-0.9-0.1-1.8-0.4-2.5-1c-0.7-0.6-1.2-1.3-1.5-2.2
			c-0.2,1.6-0.8,3.2-1.7,4.6c-1,1.3-2.7,2.3-4.3,1.7c0.2,1.4,0.4,2.9-0.1,4.2c-0.5,1.3-2,2.4-3.3,2c-1.3-0.5-1.8-2-2.1-3.4
			c-0.7-2.6-1-5.3-1-7.9c-0.1-2.8,0.8-5.5,2.5-7.6c1.7-2.2,4.1-3.6,6.8-4.2c2.7-0.6,5.5-0.8,8.2-0.7"/>
		<path class="st4" d="M62.9,236c0-0.1-0.4,0.1-0.8-0.1c-0.3-0.2-0.5-0.4-0.6-0.7c-0.1-0.3-0.2-0.6-0.2-0.9c0-0.3,0.1-0.6,0.3-0.9
			c0.2-0.3,0.4-0.5,0.7-0.6c0.5-0.2,0.8-0.1,0.8-0.2c0-0.1-0.3-0.3-0.9-0.2c-0.4,0.1-0.7,0.3-0.9,0.6c-0.3,0.4-0.5,0.8-0.5,1.2
			c0,0.4,0,0.8,0.3,1.2c0.2,0.4,0.5,0.6,0.9,0.8C62.5,236.3,62.9,236,62.9,236z"/>
		<path class="st5" d="M62.6,239.9c-0.7,0-1.2-0.6-1.2-1.2c0-0.7,0.6-1.2,1.2-1.2c0.7,0,1.2,0.6,1.2,1.2
			C63.8,239.4,63.3,239.9,62.6,239.9z"/>
		<path class="st5" d="M69.8,204.7c-0.5-0.2-1-0.2-1.5-0.2c-1.3,0.1-2.5,0.4-3.6,1.1s-2,1.5-2.7,2.6c-0.3,0.4-0.5,0.9-0.6,1.4
			c0.1,0,0.3-0.5,0.8-1.3c0.7-1,1.6-1.8,2.7-2.4c1-0.6,2.2-1,3.4-1.1C69.3,204.7,69.8,204.8,69.8,204.7z"/>
		<path class="st6" d="M64.9,204.7c0,0,0-0.1,0-0.3c0-0.3-0.1-0.6-0.2-0.8c-0.2-0.5-0.6-0.9-1-1.2c-0.4-0.3-0.9-0.6-1.4-0.7
			c-1.4-0.4-3.1,0.3-4.2,1.6c-0.6,0.7-1.1,1.5-1.5,2.3c-0.4,0.9-0.8,1.8-1.1,2.7c-0.3,0.9-0.7,1.8-1.2,2.6c-0.5,0.8-1,1.4-1.7,2
			c-0.6,0.5-1.4,0.8-2.1,1c-0.7,0.1-1.4,0-2-0.3c-0.9-0.4-1.7-1.2-2.1-2.1c-0.1-0.3-0.3-0.7-0.3-1.1c0,0,0,0.1,0,0.3
			c0,0.3,0.1,0.6,0.2,0.8c0.4,1,1.2,1.8,2.1,2.3c0.7,0.3,1.4,0.4,2.1,0.4c0.8-0.1,1.6-0.5,2.3-1c0.7-0.6,1.3-1.3,1.8-2.1
			c0.5-0.9,0.9-1.8,1.2-2.7c0.7-1.9,1.4-3.7,2.6-4.9c1.1-1.3,2.7-1.9,3.9-1.6c0.5,0.1,1,0.3,1.4,0.6s0.7,0.7,1,1.1
			C64.7,204,64.8,204.4,64.9,204.7z"/>
		<path class="st6" d="M82.7,219.3c0,0,0-0.1,0.1-0.3c0-0.3,0.1-0.5,0.1-0.8c0.1-0.9,0-1.9-0.2-2.8c-0.3-1.4-0.7-2.7-1.4-3.9
			c-0.9-1.5-2-2.8-3.4-3.8c-2.6-1.8-5.7-2.7-8.8-2.5c-0.9,0-1.9,0.2-2.8,0.5c-0.2,0.1-0.5,0.2-0.7,0.3c-0.2,0.1-0.2,0.1-0.2,0.1
			c1.2-0.4,2.5-0.6,3.7-0.7c3-0.1,6,0.8,8.6,2.6c1.4,1,2.5,2.2,3.3,3.7c0.7,1.2,1.2,2.5,1.5,3.8C82.7,216.8,82.8,218.1,82.7,219.3z"
			/>
		<path class="st6" d="M76.8,218.7c0-0.2,0-0.5,0-0.7c0-0.7-0.1-1.3-0.3-2c-0.5-2.2-1.6-4.2-3.1-5.8c-1.5-1.6-3.4-2.8-5.6-3.5
			c-0.6-0.2-1.3-0.3-2-0.4c-0.2,0-0.5,0-0.7,0c0,0.1,1,0.2,2.6,0.7c2.1,0.7,3.9,1.9,5.4,3.5c1.5,1.6,2.5,3.5,3.1,5.6
			C76.7,217.7,76.7,218.7,76.8,218.7z"/>
		<path class="st7" d="M78.4,274.6c2.1-6.3,7.1-12.8,12.7-10.5c6.2,2.6,7.9,5.9,11.3,11c3.4,5.1,5.5,10.9,7.5,16.7
			c0.8,2.3,1.6,4.9,0.3,6.9c-1.1,1.8-3.2,2.5-5.2,3c-5.1,1.4-10.3,2.5-15.6,3.5c-2.1,0.4-4.4,0.7-6.3-0.3c-2.4-1.3-3.1-4.3-3.6-7
			l-5.2-28.1"/>
		<path class="st7" d="M84.3,261.1l8.1,3.5c4.1,3.2,5.3,8.8,5.1,14l3.4,57.4c0,0-23.7,14.7-51.4-0.7c-0.7-0.4,4.6-13.5,4.6-13.5
			l-7.5-28.6c-0.6-4.1-0.9-12.7,0.1-16.7c2.7-10.4,10.1-13.5,17.6-15.6c0,0,7.5,6.4,14.9,5C79.4,265.9,83.9,265.5,84.3,261.1z"/>
		<g class="st8">
			<path d="M95.2,308.9c-4.7,6.8-9.4,13.6-14.1,20.4c-1.8,2.7-3.7,5.4-6.4,7.2c-2,1.3-4.3,2-6.7,1.9c-2.4,0-4.7-0.7-6.6-2
				c-2-1.3-3.5-3.2-4.4-5.4c-0.9-2.2-1.2-4.6-0.8-6.9c0.1-0.6,0.3-1.1,0.6-1.5c0.3-0.3,0.7-0.5,1.1-0.6c0.4-0.1,0.9,0,1.3,0.1
				c0.8,0.3,1.6,0.7,2.3,1.2c4.4,2.3,10,1.1,14.2-1.7c4.1-2.8,7.2-6.9,10.3-10.8c1.2-1.4,2.5-2.9,4.2-3.6c1.7-0.7,4-0.1,4.8,1.6"/>
		</g>
		<path class="st9" d="M71.6,280.7c-2.7,0-4.9-2.2-4.9-4.9s2.2-4.9,4.9-4.9s4.9,2.2,4.9,4.9S74.2,280.7,71.6,280.7z"/>
		<path class="st9" d="M94.2,271.7c0,1-0.3,1.9-0.8,2.7c-0.5,0.8-1.3,1.4-2.2,1.8c-0.9,0.4-1.9,0.5-2.8,0.3
			c-0.9-0.2-1.8-0.6-2.5-1.3c-0.7-0.7-1.1-1.6-1.3-2.5c-0.2-0.9-0.1-1.9,0.3-2.8c0.4-0.9,1-1.7,1.8-2.2c0.8-0.5,1.7-0.8,2.7-0.8
			c0.6,0,1.3,0.1,1.9,0.4c0.6,0.2,1.1,0.6,1.6,1.1c0.5,0.5,0.8,1,1.1,1.6C94.1,270.5,94.2,271.1,94.2,271.7z"/>
		<path class="st9" d="M98.1,318.3c0,1-0.3,1.9-0.8,2.7c-0.5,0.8-1.3,1.4-2.2,1.8c-0.9,0.4-1.9,0.5-2.8,0.3
			c-0.9-0.2-1.8-0.6-2.5-1.3c-0.7-0.7-1.1-1.5-1.3-2.5c-0.2-0.9-0.1-1.9,0.3-2.8c0.4-0.9,1-1.7,1.8-2.2c0.8-0.5,1.7-0.8,2.7-0.8
			c0.6,0,1.3,0.1,1.9,0.4c0.6,0.2,1.1,0.6,1.6,1.1c0.5,0.5,0.8,1,1.1,1.6C98,317,98.1,317.6,98.1,318.3z"/>
		<path class="st9" d="M84.5,337.1c-2.7,0-4.9-2.2-4.9-4.9s2.2-4.9,4.9-4.9s4.9,2.2,4.9,4.9S87.2,337.1,84.5,337.1z"/>
		<path class="st9" d="M61.9,338.3c-2.7,0-4.9-2.2-4.9-4.9s2.2-4.9,4.9-4.9c2.7,0,4.9,2.2,4.9,4.9S64.5,338.3,61.9,338.3z"/>
		<path class="st9" d="M81,308.4c-2.7,0-4.9-2.2-4.9-4.9s2.2-4.9,4.9-4.9c2.7,0,4.9,2.2,4.9,4.9S83.7,308.4,81,308.4z"/>
		<path class="st9" d="M85.9,293.1c-2.7,0-4.9-2.2-4.9-4.9c0-2.7,2.2-4.9,4.9-4.9c2.7,0,4.9,2.2,4.9,4.9
			C90.7,290.9,88.6,293.1,85.9,293.1z"/>
		<path class="st2" d="M85.9,262.3c-0.6,1.2-1.5,2.2-2.5,3.1c-1.1,0.9-2.4,1.6-3.8,2c-1.7,0.5-3.4,0.7-5.2,0.5
			c-1.8-0.2-3.5-0.7-5-1.5c-1.3-0.6-2.5-1.4-3.7-2.3c-0.8-0.6-1.5-1.2-2.2-1.9c-0.2-0.3-0.5-0.5-0.8-0.7c0.2,0.3,0.4,0.6,0.7,0.8
			c0.7,0.7,1.4,1.4,2.1,2c1.1,0.9,2.4,1.8,3.7,2.4c1.6,0.8,3.3,1.4,5.1,1.6c1.8,0.2,3.6,0,5.4-0.6c1.4-0.5,2.7-1.2,3.8-2.1
			c0.8-0.7,1.4-1.4,1.9-2.3c0.1-0.2,0.3-0.5,0.3-0.7C85.8,262.4,85.9,262.3,85.9,262.3z"/>
		<path class="st7" d="M61.4,261.9c-5.5,2.3-11.3,4.8-15.2,9.5c-3.8,4.6-5.3,11.1-5,17.2c0.3,6.1,2.1,12.1,3.8,17.9
			c0.7,2.3,1.6,4.9,3.8,5.8c1.9,0.8,4.1,0.1,6-0.7c5-1.9,9.8-4,14.6-6.4c1.9-0.9,4-2,4.8-4c1.1-2.5-0.1-5.3-1.3-7.8l-12.4-25.7"/>
		<path class="st9" d="M49.6,296.5c-2.7,0-4.9-2.2-4.9-4.9s2.2-4.9,4.9-4.9s4.9,2.2,4.9,4.9S52.3,296.5,49.6,296.5z"/>
		<path class="st9" d="M62.4,305.3c-2.7,0-4.9-2.2-4.9-4.9c0-2.7,2.2-4.9,4.9-4.9s4.9,2.2,4.9,4.9C67.3,303.2,65.1,305.3,62.4,305.3
			z"/>
		<path class="st9" d="M61.1,276.6c0,0.9-0.3,1.9-0.8,2.7c-0.5,0.8-1.3,1.4-2.1,1.8c-0.9,0.4-1.8,0.5-2.8,0.3
			c-0.9-0.2-1.8-0.6-2.4-1.3c-0.7-0.7-1.1-1.5-1.3-2.4c-0.2-0.9-0.1-1.9,0.3-2.8s1-1.6,1.8-2.1c0.8-0.5,1.7-0.8,2.6-0.8
			c0.6,0,1.2,0.1,1.8,0.4c0.6,0.2,1.1,0.6,1.5,1c0.4,0.4,0.8,1,1,1.5C61,275.4,61.1,276,61.1,276.6z"/>
		<path class="st3" d="M71,304.6l1.2,4.8l24.7-18l7.5-10.7c1-1.4,2.5-2.4,4.3-2.8c0.9-0.2,1.8-0.2,2.7,0c0.9,0.2,1.8,0.6,2.5,1.1
			l7,5c0,0-0.2,3.8-1.9,3c-1.7-0.8-5.1-2.7-5.1-2.7l-0.9,9.1l-4.2,3l-4.2,3.2l-27.8,27.7c-1.4,1.4-3.1,2.4-5,3
			c-1.9,0.6-3.9,0.7-5.8,0.4c-1.9-0.3-3.8-1.1-5.4-2.3c-1.6-1.2-2.9-2.7-3.7-4.5l-4.2-11.8L71,304.6z"/>
		<path class="st4" d="M72.9,308.7c-0.4,0.1-0.8,0.3-1,0.6c-0.7,0.7-1.2,1.6-1.4,2.6c-0.2,1-0.3,1.9-0.3,2.9c0,0.4,0,0.8,0.1,1.2
			c0.1-0.4,0.1-0.8,0.1-1.2c0-0.9,0.1-1.9,0.4-2.8c0.2-0.9,0.7-1.8,1.3-2.5C72.5,308.9,72.9,308.7,72.9,308.7z"/>
		<path class="st4" d="M114,284.8c0,0-0.1-0.3-0.4-0.7c-0.4-0.6-0.9-1-1.6-1.3c-0.3-0.1-0.7-0.1-1-0.1c-0.3,0.1-0.7,0.2-0.9,0.5
			c-0.4,0.4-0.4,0.8-0.3,0.8c0,0,0.1-0.3,0.5-0.6c0.2-0.2,0.5-0.3,0.8-0.3c0.3,0,0.6,0,0.9,0.1c0.6,0.2,1.1,0.6,1.5,1.1
			C113.8,284.5,114,284.8,114,284.8z"/>
		<path class="st4" d="M109.6,287.2c0,0,0.2-0.1,0.6-0.3c0.4-0.2,0.9-0.4,1.4-0.4c0.5,0,1,0.1,1.4,0.4c0.3,0.2,0.5,0.4,0.6,0.3
			s-0.1-0.3-0.4-0.5c-0.4-0.4-1-0.5-1.6-0.5s-1.1,0.2-1.6,0.5C109.7,286.9,109.6,287.2,109.6,287.2z"/>
		<path class="st2" d="M71,304.5c0.2,0,0.3,0,0.5-0.1c0.4-0.2,0.8-0.5,1.1-0.9c0.5-0.6,0.7-1.3,0.8-2.1c0.1-1-0.1-2-0.5-2.9
			c-0.4-1-1-2-1.5-3.2c-0.6-1.2-1-2.5-1.4-3.8c-0.8-2.7-1.4-5.8-2.3-9c-0.7-3-1.9-5.9-3.6-8.6c-1.4-2.2-3.4-3.9-5.7-5
			c-1.6-0.8-3.3-1.1-5-1c-0.6,0-1.2,0.1-1.8,0.4c0,0.1,0.7-0.2,1.8-0.2c1.7,0,3.4,0.3,4.9,1.1c2.2,1.1,4.1,2.8,5.5,5
			c1.6,2.6,2.8,5.5,3.5,8.5c0.8,3.2,1.5,6.3,2.3,9c0.4,1.3,0.9,2.6,1.5,3.8c0.5,1.2,1.2,2.1,1.6,3.2c0.4,0.9,0.6,1.8,0.6,2.8
			c-0.1,0.7-0.3,1.4-0.7,2c-0.3,0.4-0.6,0.7-1,0.9C71.2,304.5,71,304.5,71,304.5z"/>
		<path class="st2" d="M98.4,289c-0.1-2.1-0.3-4.2-0.6-6.2c-0.2-2.1-0.5-4.1-1-6.2c0.1,2.1,0.3,4.2,0.6,6.2
			C97.6,284.9,97.9,287,98.4,289z"/>
		<path class="st3" d="M109.5,299.6l1.3,10.3l15.7-13.4l8.6,2.1c0,0-8.9,18.7-15.9,26.1c-7,7.4-10.8,8.4-13.4,8.6
			c-3.6,0.2-5.3-4.3-5.3-4.3l-1.5-25.7L109.5,299.6z"/>
		<path class="st4" d="M110.7,309.7c-0.5,0.8-0.9,1.6-1.1,2.6c-0.3,0.9-0.4,1.8-0.4,2.8c0.3-0.9,0.5-1.8,0.7-2.7
			C110.3,311.5,110.5,310.6,110.7,309.7z"/>
		<path class="st6" d="M128,270.3h11.8c1.8,0,3.4,2.1,2.7,3.8l-11.9,23.2c-0.2,0.4-0.6,0.8-1,1.1c-0.4,0.3-0.9,0.4-1.4,0.4h-14.4
			c-0.3,0-0.7-0.2-0.9-0.4c-0.3-0.2-0.5-0.5-0.7-0.8c-0.2-0.3-0.2-0.6-0.2-1c0-0.3,0.1-0.7,0.3-1l11.5-22.7c0.4-0.8,1-1.5,1.7-1.9
			S127.1,270.4,128,270.3z"/>
		<path class="st2" d="M128.8,271.7h11.8c0.3,0,0.7,0.1,1,0.3c0.3,0.2,0.5,0.4,0.7,0.7c0.2,0.3,0.3,0.6,0.3,0.9c0,0.3-0.1,0.7-0.2,1
			l-11.6,22.8c-0.2,0.4-0.6,0.8-1,1.1c-0.4,0.3-0.9,0.4-1.4,0.4h-14.3c-0.2,0-0.4-0.1-0.6-0.1c-0.2-0.1-0.3-0.2-0.4-0.4
			c-0.1-0.2-0.2-0.4-0.2-0.6c0-0.2,0-0.4,0.1-0.6l11.5-22.8c0.4-0.8,1-1.5,1.7-1.9C127,272,127.9,271.7,128.8,271.7z"/>
		<path class="st3" d="M129.8,281.3l7.2,2.9l1.5,5.8l-3.5,8.7l-12.7,1.9l3.7-3.8l-0.5-3.3c0,0-3.6-1.1-3.6-1.7
			c-0.1-0.5,0.4-2.4,1-2.5c0.5-0.1,4.3,1.3,4.3,1.3s-4.4-3.5-4.3-4.1s0.6-2,1.5-2.1c0.9-0.1,8,3.2,8,3.2l1.2,2.6l1-4.2
			C134.5,285.9,128.2,284.1,129.8,281.3z"/>
		<path class="st4" d="M128.9,294.9c0,0,0.2-0.3,0.2-0.7c0.1-0.6,0-1.2-0.2-1.8c-0.2-0.6-0.6-1.1-1-1.5c-0.4-0.3-0.6-0.4-0.7-0.4
			c0.5,0.6,1,1.3,1.3,2C128.8,293.3,128.9,294.1,128.9,294.9z"/>
		<path class="st4" d="M132.3,293.6c-0.1-0.6-0.2-1.3-0.3-1.9c0-0.7-0.2-1.4-0.4-2.1c-0.1-0.4-0.4-0.8-0.7-1.1
			c-0.3-0.3-0.7-0.6-1.2-0.7c-1.7-0.6-3.3-1.1-4.4-1.5c-0.6-0.2-1.2-0.4-1.9-0.5c0.6,0.3,1.1,0.5,1.8,0.7c1.1,0.4,2.7,1,4.4,1.6
			c0.4,0.1,0.8,0.4,1.1,0.7c0.3,0.3,0.5,0.6,0.6,1c0.2,0.7,0.4,1.3,0.4,2C131.8,292.4,132,293.1,132.3,293.6z"/>
		<path class="st4" d="M134,292.4c0.1,0,0.1-0.7-0.1-1.4c-0.1-0.8-0.3-1.4-0.4-1.4c-0.1,0-0.1,0.7,0.1,1.4
			C133.7,291.8,133.9,292.4,134,292.4z"/>
		<path class="st10" d="M134.2,276.1c0,0.3-0.1,0.6-0.3,0.8s-0.4,0.4-0.7,0.6c-0.3,0.1-0.6,0.1-0.9,0.1c-0.3-0.1-0.6-0.2-0.8-0.4
			c-0.2-0.2-0.4-0.5-0.4-0.8c-0.1-0.3,0-0.6,0.1-0.9c0.1-0.3,0.3-0.5,0.6-0.7c0.2-0.2,0.5-0.3,0.8-0.3c0.4,0,0.8,0.2,1.1,0.4
			C134,275.3,134.2,275.7,134.2,276.1z"/>
		<path class="st4" d="M104.7,299.7c-0.2,0.1-0.3,0.2-0.4,0.3l-1.2,1.1l-4.2,3.9l-0.1,0v0.1c0.2,2.4,0.4,5.2,0.6,8.3
			c0.3,4.4,0.6,8.5,0.7,11.4c0.1,1.4,0.1,2.6,0.2,3.5c0,0.4,0,0.8,0.1,1.3c0-0.4,0.1-0.8,0.1-1.3c0-0.8,0-2,0-3.5
			c-0.1-2.9-0.3-7-0.6-11.4c-0.2-3.1-0.5-5.9-0.7-8.3l0,0.1l4.1-3.9l1.1-1.1C104.5,300,104.6,299.8,104.7,299.7z"/>
	</g>
</g>
<g>
	<defs>
		<rect id="SVGID_00000062176710336566691680000011107322462465729926_" x="178.9" y="26" width="190" height="387"/>
	</defs>
	<clipPath id="SVGID_00000091013448787241977160000014319011799570639785_">
		<use xlink:href="#SVGID_00000062176710336566691680000011107322462465729926_"  style="overflow:visible;"/>
	</clipPath>
	<g style="clip-path:url(#SVGID_00000091013448787241977160000014319011799570639785_);">
		<path class="st2" d="M338.8,413l-131.4-0.6c-3.8,0-7.5-0.8-10.9-2.2c-3.5-1.5-6.6-3.6-9.3-6.2c-2.6-2.7-4.7-5.8-6.2-9.3
			c-1.4-3.5-2.2-7.2-2.1-11l1.4-329.2c0-3.8,0.8-7.5,2.2-10.9c1.5-3.5,3.6-6.6,6.2-9.3c2.7-2.6,5.8-4.7,9.3-6.2
			c3.5-1.4,7.2-2.1,11-2.1l131.4,0.6c7.6,0,14.9,3.1,20.2,8.5c5.3,5.4,8.3,12.7,8.3,20.3l-1.4,329.2c0,3.8-0.8,7.5-2.2,11
			c-1.5,3.5-3.6,6.6-6.2,9.3c-2.7,2.6-5.8,4.7-9.3,6.2C346.3,412.3,342.6,413,338.8,413z"/>
		<path class="st10" d="M340.3,38l-25.5-0.1c-0.8,0-1.7,0.2-2.4,0.5c-0.8,0.3-1.5,0.8-2,1.4c-0.6,0.6-1,1.3-1.3,2.1
			c-0.3,0.8-0.5,1.6-0.4,2.4V49c0,0.8-0.1,1.7-0.4,2.4c-0.3,0.8-0.8,1.5-1.3,2.1s-1.3,1.1-2,1.4c-0.8,0.3-1.6,0.5-2.4,0.5l-49.6-0.2
			c-0.8,0-1.6-0.2-2.4-0.5c-0.8-0.3-1.4-0.8-2-1.4c-0.6-0.6-1-1.3-1.3-2.1c-0.3-0.8-0.4-1.6-0.4-2.4v-4.6c0-1.7-0.6-3.3-1.7-4.5
			c-1.2-1.2-2.7-1.9-4.4-2h-9l-22.3-0.1c-5.3,0-10.4,2.1-14.2,5.8c-3.8,3.7-5.9,8.8-6,14.1l-1.4,321.3c0,5.3,2.1,10.4,5.8,14.2
			c3.7,3.8,8.8,5.9,14.1,5.9l131.1,0.6c5.3,0,10.4-2.1,14.2-5.8c3.8-3.7,5.9-8.8,5.9-14.1l1.3-321.3c0-5.3-2.1-10.4-5.8-14.2
			S345.6,38,340.3,38z"/>
		<path class="st7" d="M219.8,88.8c0,1.2-0.4,2.5-1.1,3.5s-1.7,1.8-2.8,2.3c-1.2,0.5-2.4,0.6-3.6,0.4c-1.2-0.2-2.3-0.8-3.2-1.7
			s-1.5-2-1.7-3.2s-0.1-2.5,0.4-3.6c0.5-1.2,1.3-2.1,2.3-2.8c1-0.7,2.3-1.1,3.5-1.1c0.8,0,1.6,0.2,2.4,0.5c0.8,0.3,1.5,0.8,2,1.4
			c0.6,0.6,1,1.3,1.4,2C219.6,87.2,219.8,88,219.8,88.8z"/>
		<path class="st7" d="M231.5,84.1h105.7c1.6,0,3,0.6,4.1,1.7c1.1,1.1,1.7,2.6,1.7,4.1v16c0,0.8-0.2,1.5-0.4,2.2
			c-0.3,0.7-0.7,1.4-1.3,1.9c-0.5,0.5-1.2,1-1.9,1.3s-1.5,0.4-2.2,0.4h-94.7c-0.8,0-1.5-0.1-2.2-0.4c-0.7-0.3-1.4-0.7-1.9-1.3
			c-0.5-0.5-1-1.2-1.3-1.9c-0.3-0.7-0.4-1.5-0.4-2.2V88.7L231.5,84.1z"/>
		<path class="st9" d="M326.1,94c0,0.1-16.2,0.3-36.2,0.3c-20,0-36.3-0.1-36.3-0.3c0-0.1,16.2-0.3,36.3-0.3
			C309.9,93.7,326.1,93.9,326.1,94z"/>
		<path class="st9" d="M326.1,100.5c0,0.2-16.2,0.3-36.2,0.3c-20,0-36.3-0.1-36.3-0.3c0-0.2,16.2-0.3,36.3-0.3
			C309.9,100.3,326.1,100.4,326.1,100.5z"/>
		<path class="st7" d="M219.8,243.8c0,1.2-0.4,2.5-1.1,3.5c-0.7,1-1.7,1.8-2.8,2.3c-1.2,0.5-2.4,0.6-3.6,0.4s-2.3-0.8-3.2-1.7
			c-0.9-0.9-1.5-2-1.7-3.2c-0.2-1.2-0.1-2.5,0.4-3.6c0.5-1.2,1.3-2.1,2.3-2.8c1-0.7,2.3-1.1,3.5-1.1c0.8,0,1.6,0.2,2.4,0.5
			c0.8,0.3,1.5,0.8,2,1.4c0.6,0.6,1,1.3,1.4,2C219.6,242.1,219.8,242.9,219.8,243.8z"/>
		<path class="st7" d="M231.5,239h105.7c1.6,0,3,0.6,4.1,1.7s1.7,2.6,1.7,4.1v16c0,1.6-0.6,3-1.7,4.1c-1.1,1.1-2.6,1.7-4.1,1.7
			h-94.7c-1.6,0-3-0.6-4.1-1.7c-1.1-1.1-1.7-2.6-1.7-4.1v-17.2L231.5,239z"/>
		<path class="st9" d="M326.1,248.9c0,0.1-16.2,0.3-36.2,0.3c-20,0-36.3-0.1-36.3-0.3c0-0.1,16.2-0.3,36.3-0.3
			C309.9,248.7,326.1,248.8,326.1,248.9z"/>
		<path class="st9" d="M326.1,255.5c0,0.2-16.2,0.3-36.2,0.3c-20,0-36.3-0.1-36.3-0.3c0-0.2,16.2-0.3,36.3-0.3
			C309.9,255.2,326.1,255.3,326.1,255.5z"/>
		<path class="st6" d="M330.4,143.4c3.4,0,6.2-2.8,6.2-6.2c0-3.4-2.8-6.2-6.2-6.2s-6.2,2.8-6.2,6.2
			C324.2,140.6,327,143.4,330.4,143.4z"/>
		<path class="st6" d="M315.5,128.5h-99c-1.5,0-2.8,0.6-3.9,1.6c-1,1-1.6,2.4-1.6,3.9v15c0,1.5,0.6,2.8,1.6,3.9c1,1,2.4,1.6,3.9,1.6
			h88.7c1.5,0,2.8-0.6,3.9-1.6c1-1,1.6-2.4,1.6-3.9v-16.1L315.5,128.5z"/>
		<path class="st9" d="M226.9,137.8c0-0.1,15.2-0.3,34-0.3c18.8,0,33.9,0.1,33.9,0.3s-15.2,0.3-33.9,0.3
			C242.1,138.1,226.9,138,226.9,137.8z"/>
		<path class="st9" d="M226.9,143.9c0-0.2,15.2-0.3,34-0.3c18.8,0,33.9,0.1,33.9,0.3c0,0.2-15.2,0.3-33.9,0.3
			C242.1,144.2,226.9,144.1,226.9,143.9z"/>
		<path class="st2" d="M207.2,180.8c0,1.2,0.4,2.5,1.1,3.5c0.7,1,1.7,1.8,2.8,2.3c1.2,0.5,2.4,0.6,3.6,0.4c1.2-0.2,2.3-0.8,3.2-1.7
			c0.9-0.9,1.5-2,1.7-3.2c0.2-1.2,0.1-2.5-0.4-3.6c-0.5-1.2-1.3-2.1-2.3-2.8c-1-0.7-2.3-1.1-3.5-1.1c-0.8,0-1.6,0.2-2.4,0.5
			c-0.8,0.3-1.5,0.8-2,1.4c-0.6,0.6-1,1.3-1.4,2C207.3,179.2,207.2,180,207.2,180.8z"/>
		<path class="st2" d="M235.4,171.7h99c1.5,0,2.8,0.6,3.9,1.6c1,1,1.6,2.4,1.6,3.9v15c0,1.5-0.6,2.8-1.6,3.9c-1,1-2.4,1.6-3.9,1.6
			h-88.7c-1.5,0-2.8-0.6-3.9-1.6c-1-1-1.6-2.4-1.6-3.9v-16.1L235.4,171.7z"/>
		<path class="st9" d="M324.1,181c0,0.1-15.2,0.3-34,0.3c-18.8,0-34-0.1-34-0.3c0-0.1,15.2-0.3,34-0.3
			C308.9,180.8,324.1,180.9,324.1,181z"/>
		<path class="st9" d="M324.1,187.1c0,0.1-15.2,0.3-34,0.3c-18.8,0-34-0.1-34-0.3c0-0.1,15.2-0.3,34-0.3
			C308.9,186.8,324.1,187,324.1,187.1z"/>
		<path class="st2" d="M332,209.9h-23.9c-2.2,0-4,1.8-4,4v8.6c0,2.2,1.8,4,4,4H332c2.2,0,4-1.8,4-4V214
			C336,211.7,334.2,209.9,332,209.9z"/>
		<path class="st9" d="M330.3,218.3c-3.1,0.3-6.2,0.3-9.4,0.3c-3.1,0.1-6.3,0-9.4-0.3c3.1-0.3,6.3-0.3,9.4-0.3
			C324.1,217.9,327.2,218,330.3,218.3z"/>
		<path class="st12" d="M215.4,321h-15.7v15.6h15.7V321z"/>
		<path class="st12" d="M234.1,321h-15.7v15.6h15.7V321z"/>
		<path class="st12" d="M252.7,321H237v15.6h15.7V321z"/>
		<path class="st12" d="M271.3,321h-15.7v15.6h15.7V321z"/>
		<path class="st12" d="M289.9,321h-15.7v15.6h15.7V321z"/>
		<path class="st12" d="M216.1,359.7h-16.4V376h16.4V359.7z"/>
		<path class="st12" d="M298.2,359.7h-79v16.4h79V359.7z"/>
		<path class="st2" d="M346,316.5c0,0,0-0.4,0-1.2c0-0.8,0-1.9,0-3.5c0-3,0-7.5-0.1-13.4l0.1,0.1l-146.2,0.1l0.3-0.3v18l-0.3-0.3
			l103.9,0.1l31,0.1h8.4h2.2L346,316.5c0-0.1-0.2-0.1-0.7-0.1h-2.1h-8.3l-30.9,0.1l-104.1,0.1h-0.3v-18.4h0.3l146.2,0.2h0.1v0.1
			c0,5.9-0.1,10.4-0.1,13.5c0,1.5,0,2.6,0,3.4C346,316.1,346,316.5,346,316.5z"/>
		<path class="st5" d="M335.8,301.7h-0.8c-0.8,0-1.5,0.7-1.5,1.5v4.4c0,0.8,0.7,1.5,1.5,1.5h0.8c0.8,0,1.5-0.7,1.5-1.5v-4.4
			C337.3,302.3,336.7,301.7,335.8,301.7z"/>
		<path class="st5" d="M340,307.6c-0.4,0.1-0.8,0.2-1.2,0.2l0.2-0.1c0,0.8-0.3,1.6-0.8,2.3c-0.3,0.5-0.7,0.8-1.2,1.1
			c-0.5,0.3-1.1,0.4-1.7,0.3c-0.5,0-1.1-0.2-1.6-0.4c-0.5-0.3-0.9-0.6-1.2-1.1c-0.5-0.7-0.8-1.4-0.9-2.2l0.2,0.1
			c-0.5,0-0.9,0-1.4-0.2c0.4-0.1,0.9-0.2,1.4-0.2h0.1v0.1c0.2,0.7,0.6,1.4,1,2c0.3,0.4,0.7,0.7,1.1,0.9c0.4,0.2,0.9,0.3,1.4,0.4
			c0.5,0,1-0.1,1.5-0.3c0.4-0.2,0.8-0.5,1-0.9c0.4-0.6,0.7-1.3,0.8-2.1v-0.1h0.1C339.2,307.5,339.6,307.5,340,307.6z"/>
		<path class="st5" d="M335.5,311.1c0.1,0,0.3,0.5,0.3,1.2c0,0.6-0.1,1.1-0.3,1.1c-0.1,0-0.3-0.5-0.3-1.1
			C335.2,311.7,335.3,311.1,335.5,311.1z"/>
		<path class="st12" d="M317.2,359.7h-16.4V376h16.4V359.7z"/>
		<path class="st7" d="M346,359.7h-25.7V376H346V359.7z"/>
		<path class="st12" d="M308.8,321h-15.7v15.6h15.7V321z"/>
		<path class="st12" d="M327.4,321h-15.7v15.6h15.7V321z"/>
		<path class="st12" d="M346,321h-15.7v15.6H346V321z"/>
		<path class="st12" d="M215.4,340.4h-15.7V356h15.7V340.4z"/>
		<path class="st12" d="M234.1,340.4h-15.7V356h15.7V340.4z"/>
		<path class="st12" d="M252.7,340.4H237V356h15.7V340.4z"/>
		<path class="st12" d="M271.3,340.4h-15.7V356h15.7V340.4z"/>
		<path class="st12" d="M289.9,340.4h-15.7V356h15.7V340.4z"/>
		<path class="st12" d="M308.8,340.4h-15.7V356h15.7V340.4z"/>
		<path class="st12" d="M327.4,340.4h-15.7V356h15.7V340.4z"/>
		<path class="st12" d="M346,340.4h-15.7V356H346V340.4z"/>
		<path class="st7" d="M269.9,284.9c0,0.5-0.2,1.1-0.4,1.5c-0.3,0.4-0.7,0.8-1.2,1c-0.5,0.2-1,0.3-1.6,0.2c-0.5-0.1-1-0.4-1.4-0.7
			c-0.4-0.4-0.6-0.9-0.7-1.4c-0.1-0.5,0-1.1,0.2-1.6c0.2-0.5,0.6-0.9,1-1.2c0.4-0.3,1-0.5,1.5-0.4c0.4,0,0.7,0.1,1,0.2
			c0.3,0.1,0.6,0.3,0.9,0.6c0.3,0.2,0.4,0.5,0.6,0.9C269.9,284.2,269.9,284.6,269.9,284.9z"/>
		<path class="st7" d="M278.3,285c0,0.5-0.2,1.1-0.5,1.5c-0.3,0.4-0.7,0.8-1.2,1c-0.5,0.2-1,0.3-1.6,0.2c-0.5-0.1-1-0.4-1.4-0.7
			c-0.4-0.4-0.6-0.9-0.7-1.4c-0.1-0.5,0-1.1,0.2-1.6c0.2-0.5,0.6-0.9,1-1.2c0.4-0.3,1-0.5,1.5-0.5c0.4,0,0.7,0.1,1,0.2
			c0.3,0.1,0.6,0.3,0.9,0.6c0.3,0.2,0.4,0.5,0.6,0.9C278.2,284.3,278.3,284.6,278.3,285z"/>
		<path class="st7" d="M286.7,285c0,0.5-0.2,1.1-0.5,1.5c-0.3,0.4-0.7,0.8-1.2,1c-0.5,0.2-1,0.3-1.6,0.2c-0.5-0.1-1-0.4-1.4-0.7
			c-0.4-0.4-0.6-0.9-0.7-1.4c-0.1-0.5-0.1-1.1,0.2-1.6c0.2-0.5,0.6-0.9,1-1.2c0.4-0.3,1-0.5,1.5-0.5c0.7,0,1.4,0.3,1.9,0.8
			C286.4,283.6,286.7,284.3,286.7,285z"/>
	</g>
</g>
</svg>
